G04 #@! TF.FileFunction,Copper,L2,Bot,Signal*
%FSLAX46Y46*%
G04 Gerber Fmt 4.6, Leading zero omitted, Abs format (unit mm)*
G04 Created by KiCad (PCBNEW 4.0.1-stable) date 2018/10/01 17:56:13*
%MOMM*%
G01*
G04 APERTURE LIST*
%ADD10C,0.100000*%
%ADD11C,0.500000*%
%ADD12C,2.200000*%
%ADD13C,2.000000*%
%ADD14C,1.778000*%
%ADD15C,0.700000*%
%ADD16C,0.254000*%
G04 APERTURE END LIST*
D10*
D11*
X92344762Y-109412379D02*
X90344762Y-109412379D01*
X90344762Y-109888570D01*
X90440000Y-110174284D01*
X90630476Y-110364760D01*
X90820952Y-110459999D01*
X91201905Y-110555237D01*
X91487619Y-110555237D01*
X91868571Y-110459999D01*
X92059048Y-110364760D01*
X92249524Y-110174284D01*
X92344762Y-109888570D01*
X92344762Y-109412379D01*
X91011429Y-111126665D02*
X91011429Y-111888570D01*
X92344762Y-111412379D02*
X90630476Y-111412379D01*
X90440000Y-111507618D01*
X90344762Y-111698094D01*
X90344762Y-111888570D01*
X92344762Y-112840951D02*
X92249524Y-112650475D01*
X92059048Y-112555236D01*
X90344762Y-112555236D01*
X92344762Y-114459998D02*
X91297143Y-114459998D01*
X91106667Y-114364760D01*
X91011429Y-114174284D01*
X91011429Y-113793332D01*
X91106667Y-113602855D01*
X92249524Y-114459998D02*
X92344762Y-114269522D01*
X92344762Y-113793332D01*
X92249524Y-113602855D01*
X92059048Y-113507617D01*
X91868571Y-113507617D01*
X91678095Y-113602855D01*
X91582857Y-113793332D01*
X91582857Y-114269522D01*
X91487619Y-114459998D01*
X92344762Y-115412379D02*
X91011429Y-115412379D01*
X91201905Y-115412379D02*
X91106667Y-115507618D01*
X91011429Y-115698094D01*
X91011429Y-115983808D01*
X91106667Y-116174284D01*
X91297143Y-116269522D01*
X92344762Y-116269522D01*
X91297143Y-116269522D02*
X91106667Y-116364760D01*
X91011429Y-116555237D01*
X91011429Y-116840951D01*
X91106667Y-117031427D01*
X91297143Y-117126665D01*
X92344762Y-117126665D01*
X92344762Y-118079046D02*
X91011429Y-118079046D01*
X90344762Y-118079046D02*
X90440000Y-117983808D01*
X90535238Y-118079046D01*
X90440000Y-118174285D01*
X90344762Y-118079046D01*
X90535238Y-118079046D01*
X91011429Y-119031427D02*
X92344762Y-119031427D01*
X91201905Y-119031427D02*
X91106667Y-119126666D01*
X91011429Y-119317142D01*
X91011429Y-119602856D01*
X91106667Y-119793332D01*
X91297143Y-119888570D01*
X92344762Y-119888570D01*
X91011429Y-121698094D02*
X92630476Y-121698094D01*
X92820952Y-121602856D01*
X92916190Y-121507618D01*
X93011429Y-121317142D01*
X93011429Y-121031428D01*
X92916190Y-120840951D01*
X92249524Y-121698094D02*
X92344762Y-121507618D01*
X92344762Y-121126666D01*
X92249524Y-120936190D01*
X92154286Y-120840951D01*
X91963810Y-120745713D01*
X91392381Y-120745713D01*
X91201905Y-120840951D01*
X91106667Y-120936190D01*
X91011429Y-121126666D01*
X91011429Y-121507618D01*
X91106667Y-121698094D01*
X92344762Y-122936190D02*
X92249524Y-122745714D01*
X92154286Y-122650475D01*
X91963810Y-122555237D01*
X91392381Y-122555237D01*
X91201905Y-122650475D01*
X91106667Y-122745714D01*
X91011429Y-122936190D01*
X91011429Y-123221904D01*
X91106667Y-123412380D01*
X91201905Y-123507618D01*
X91392381Y-123602856D01*
X91963810Y-123602856D01*
X92154286Y-123507618D01*
X92249524Y-123412380D01*
X92344762Y-123221904D01*
X92344762Y-122936190D01*
X92535238Y-123983809D02*
X92535238Y-125507619D01*
X92249524Y-125888571D02*
X92344762Y-126079048D01*
X92344762Y-126460000D01*
X92249524Y-126650476D01*
X92059048Y-126745714D01*
X91963810Y-126745714D01*
X91773333Y-126650476D01*
X91678095Y-126460000D01*
X91678095Y-126174286D01*
X91582857Y-125983809D01*
X91392381Y-125888571D01*
X91297143Y-125888571D01*
X91106667Y-125983809D01*
X91011429Y-126174286D01*
X91011429Y-126460000D01*
X91106667Y-126650476D01*
X92249524Y-128364762D02*
X92344762Y-128174286D01*
X92344762Y-127793334D01*
X92249524Y-127602857D01*
X92059048Y-127507619D01*
X91297143Y-127507619D01*
X91106667Y-127602857D01*
X91011429Y-127793334D01*
X91011429Y-128174286D01*
X91106667Y-128364762D01*
X91297143Y-128460000D01*
X91487619Y-128460000D01*
X91678095Y-127507619D01*
X91011429Y-129317143D02*
X92344762Y-129317143D01*
X91201905Y-129317143D02*
X91106667Y-129412382D01*
X91011429Y-129602858D01*
X91011429Y-129888572D01*
X91106667Y-130079048D01*
X91297143Y-130174286D01*
X92344762Y-130174286D01*
X92344762Y-131983810D02*
X90344762Y-131983810D01*
X92249524Y-131983810D02*
X92344762Y-131793334D01*
X92344762Y-131412382D01*
X92249524Y-131221906D01*
X92154286Y-131126667D01*
X91963810Y-131031429D01*
X91392381Y-131031429D01*
X91201905Y-131126667D01*
X91106667Y-131221906D01*
X91011429Y-131412382D01*
X91011429Y-131793334D01*
X91106667Y-131983810D01*
X92344762Y-134460001D02*
X90344762Y-134460001D01*
X90344762Y-135221906D01*
X90440000Y-135412382D01*
X90535238Y-135507621D01*
X90725714Y-135602859D01*
X91011429Y-135602859D01*
X91201905Y-135507621D01*
X91297143Y-135412382D01*
X91392381Y-135221906D01*
X91392381Y-134460001D01*
X92154286Y-137602859D02*
X92249524Y-137507621D01*
X92344762Y-137221906D01*
X92344762Y-137031430D01*
X92249524Y-136745716D01*
X92059048Y-136555240D01*
X91868571Y-136460001D01*
X91487619Y-136364763D01*
X91201905Y-136364763D01*
X90820952Y-136460001D01*
X90630476Y-136555240D01*
X90440000Y-136745716D01*
X90344762Y-137031430D01*
X90344762Y-137221906D01*
X90440000Y-137507621D01*
X90535238Y-137602859D01*
X91297143Y-139126668D02*
X91392381Y-139412382D01*
X91487619Y-139507621D01*
X91678095Y-139602859D01*
X91963810Y-139602859D01*
X92154286Y-139507621D01*
X92249524Y-139412382D01*
X92344762Y-139221906D01*
X92344762Y-138460001D01*
X90344762Y-138460001D01*
X90344762Y-139126668D01*
X90440000Y-139317144D01*
X90535238Y-139412382D01*
X90725714Y-139507621D01*
X90916190Y-139507621D01*
X91106667Y-139412382D01*
X91201905Y-139317144D01*
X91297143Y-139126668D01*
X91297143Y-138460001D01*
D12*
X162560000Y-135890000D03*
X162560000Y-138430000D03*
D13*
X162560000Y-109300000D03*
X162560000Y-119300000D03*
X154940000Y-109300000D03*
X154940000Y-119300000D03*
X147320000Y-109300000D03*
X147320000Y-119300000D03*
X139700000Y-109300000D03*
X139700000Y-119300000D03*
X132080000Y-109300000D03*
X132080000Y-119300000D03*
X124460000Y-109300000D03*
X124460000Y-119300000D03*
D14*
X163270000Y-96810000D03*
X163270000Y-101310000D03*
X156770000Y-101310000D03*
X156770000Y-96810000D03*
X150570000Y-96810000D03*
X150570000Y-101310000D03*
X144070000Y-101310000D03*
X144070000Y-96810000D03*
X137870000Y-96810000D03*
X137870000Y-101310000D03*
X131370000Y-101310000D03*
X131370000Y-96810000D03*
X125170000Y-96810000D03*
X125170000Y-101310000D03*
X118670000Y-101310000D03*
X118670000Y-96810000D03*
X112470000Y-96810000D03*
X112470000Y-101310000D03*
X105970000Y-101310000D03*
X105970000Y-96810000D03*
X99770000Y-96810000D03*
X99770000Y-101310000D03*
X93270000Y-101310000D03*
X93270000Y-96810000D03*
D13*
X114300000Y-129540000D03*
X116840000Y-129540000D03*
X119380000Y-129540000D03*
X121920000Y-129540000D03*
X124460000Y-129540000D03*
X127000000Y-129540000D03*
X129540000Y-129540000D03*
X132080000Y-129540000D03*
X134620000Y-129540000D03*
X137160000Y-129540000D03*
X139700000Y-129540000D03*
X142240000Y-129540000D03*
X111760000Y-129540000D03*
X144780000Y-129540000D03*
X144780000Y-144780000D03*
X142240000Y-144780000D03*
X139700000Y-144780000D03*
X137160000Y-144780000D03*
X134620000Y-144780000D03*
X132080000Y-144780000D03*
X129540000Y-144780000D03*
X127000000Y-144780000D03*
X124460000Y-144780000D03*
X121920000Y-144780000D03*
X119380000Y-144780000D03*
X116840000Y-144780000D03*
X114300000Y-144780000D03*
X111760000Y-144780000D03*
D11*
X163270000Y-101310000D02*
X163270000Y-102160000D01*
X163270000Y-102160000D02*
X158115000Y-107315000D01*
X158115000Y-107315000D02*
X123190000Y-107315000D01*
X123190000Y-107315000D02*
X122555000Y-107315000D01*
X122555000Y-107315000D02*
X122555000Y-111125000D01*
X122555000Y-111125000D02*
X156845000Y-111125000D01*
X156845000Y-111125000D02*
X162560000Y-116840000D01*
X162560000Y-116840000D02*
X162560000Y-119300000D01*
D15*
X162560000Y-119300000D02*
X162005000Y-119300000D01*
D11*
X162005000Y-119300000D02*
X151765000Y-129540000D01*
X151765000Y-129540000D02*
X144780000Y-129540000D01*
X150570000Y-101310000D02*
X150570000Y-102160000D01*
X150570000Y-102160000D02*
X146685000Y-106045000D01*
X146685000Y-106045000D02*
X121285000Y-106045000D01*
X121285000Y-106045000D02*
X121285000Y-112395000D01*
X121285000Y-112395000D02*
X148590000Y-112395000D01*
X148590000Y-112395000D02*
X154940000Y-118745000D01*
X154940000Y-118745000D02*
X154940000Y-119300000D01*
X142240000Y-129540000D02*
X152400000Y-119380000D01*
X152400000Y-119380000D02*
X154860000Y-119380000D01*
X154860000Y-119380000D02*
X154940000Y-119300000D01*
X137870000Y-101310000D02*
X137870000Y-102160000D01*
X137870000Y-102160000D02*
X135255000Y-104775000D01*
X135255000Y-104775000D02*
X120015000Y-104775000D01*
X120015000Y-104775000D02*
X120015000Y-113665000D01*
X120015000Y-113665000D02*
X142240000Y-113665000D01*
X142240000Y-113665000D02*
X147320000Y-118745000D01*
X147320000Y-118745000D02*
X147320000Y-119300000D01*
X139700000Y-129540000D02*
X139700000Y-128905000D01*
X139700000Y-128905000D02*
X147320000Y-121285000D01*
X147320000Y-121285000D02*
X147320000Y-119300000D01*
X125170000Y-101310000D02*
X125170000Y-101525000D01*
X125170000Y-101525000D02*
X123190000Y-103505000D01*
X123190000Y-103505000D02*
X118745000Y-103505000D01*
X118745000Y-103505000D02*
X118745000Y-114935000D01*
X118745000Y-114935000D02*
X134620000Y-114935000D01*
X134620000Y-114935000D02*
X138985000Y-119300000D01*
X138985000Y-119300000D02*
X139700000Y-119300000D01*
X139700000Y-119300000D02*
X139700000Y-127000000D01*
X139700000Y-127000000D02*
X137160000Y-129540000D01*
X112470000Y-101310000D02*
X112470000Y-111200000D01*
X128985000Y-116205000D02*
X132080000Y-119300000D01*
X117475000Y-116205000D02*
X128985000Y-116205000D01*
X112470000Y-111200000D02*
X117475000Y-116205000D01*
X132080000Y-119300000D02*
X132080000Y-124460000D01*
X132080000Y-124460000D02*
X127000000Y-129540000D01*
X99770000Y-101310000D02*
X99770000Y-101675000D01*
X99770000Y-101675000D02*
X117395000Y-119300000D01*
X117395000Y-119300000D02*
X124460000Y-119300000D01*
X124460000Y-119300000D02*
X124460000Y-129540000D01*
X111760000Y-129540000D02*
X118110000Y-135890000D01*
X118110000Y-135890000D02*
X162560000Y-135890000D01*
D15*
X162560000Y-135890000D02*
X167005000Y-131445000D01*
X167005000Y-131445000D02*
X167005000Y-113745000D01*
X167005000Y-113745000D02*
X162560000Y-109300000D01*
X162560000Y-109300000D02*
X147320000Y-109300000D01*
D11*
X147320000Y-109300000D02*
X139700000Y-109300000D01*
D15*
X139700000Y-109300000D02*
X124460000Y-109300000D01*
D16*
G36*
X174550000Y-154230000D02*
X84530000Y-154230000D01*
X84530000Y-150479270D01*
X85772458Y-150479270D01*
X86247512Y-151628989D01*
X87126384Y-152509396D01*
X88275272Y-152986456D01*
X89519270Y-152987542D01*
X90668989Y-152512488D01*
X91549396Y-151633616D01*
X92026456Y-150484728D01*
X92026460Y-150479270D01*
X167052458Y-150479270D01*
X167527512Y-151628989D01*
X168406384Y-152509396D01*
X169555272Y-152986456D01*
X170799270Y-152987542D01*
X171948989Y-152512488D01*
X172829396Y-151633616D01*
X173306456Y-150484728D01*
X173307542Y-149240730D01*
X172832488Y-148091011D01*
X171953616Y-147210604D01*
X170804728Y-146733544D01*
X169560730Y-146732458D01*
X168411011Y-147207512D01*
X167530604Y-148086384D01*
X167053544Y-149235272D01*
X167052458Y-150479270D01*
X92026460Y-150479270D01*
X92027542Y-149240730D01*
X91552488Y-148091011D01*
X90673616Y-147210604D01*
X89524728Y-146733544D01*
X88280730Y-146732458D01*
X87131011Y-147207512D01*
X86250604Y-148086384D01*
X85773544Y-149235272D01*
X85772458Y-150479270D01*
X84530000Y-150479270D01*
X84530000Y-145932532D01*
X110787073Y-145932532D01*
X110885736Y-146199387D01*
X111495461Y-146425908D01*
X112145460Y-146401856D01*
X112634264Y-146199387D01*
X112732927Y-145932532D01*
X111760000Y-144959605D01*
X110787073Y-145932532D01*
X84530000Y-145932532D01*
X84530000Y-144515461D01*
X110114092Y-144515461D01*
X110138144Y-145165460D01*
X110340613Y-145654264D01*
X110607468Y-145752927D01*
X111580395Y-144780000D01*
X111939605Y-144780000D01*
X112912532Y-145752927D01*
X112947938Y-145739836D01*
X113372637Y-146165278D01*
X113973352Y-146414716D01*
X114623795Y-146415284D01*
X115224943Y-146166894D01*
X115570199Y-145822241D01*
X115912637Y-146165278D01*
X116513352Y-146414716D01*
X117163795Y-146415284D01*
X117764943Y-146166894D01*
X118110199Y-145822241D01*
X118452637Y-146165278D01*
X119053352Y-146414716D01*
X119703795Y-146415284D01*
X120304943Y-146166894D01*
X120650199Y-145822241D01*
X120992637Y-146165278D01*
X121593352Y-146414716D01*
X122243795Y-146415284D01*
X122844943Y-146166894D01*
X123190199Y-145822241D01*
X123532637Y-146165278D01*
X124133352Y-146414716D01*
X124783795Y-146415284D01*
X125384943Y-146166894D01*
X125730199Y-145822241D01*
X126072637Y-146165278D01*
X126673352Y-146414716D01*
X127323795Y-146415284D01*
X127924943Y-146166894D01*
X128270199Y-145822241D01*
X128612637Y-146165278D01*
X129213352Y-146414716D01*
X129863795Y-146415284D01*
X130464943Y-146166894D01*
X130810199Y-145822241D01*
X131152637Y-146165278D01*
X131753352Y-146414716D01*
X132403795Y-146415284D01*
X133004943Y-146166894D01*
X133350199Y-145822241D01*
X133692637Y-146165278D01*
X134293352Y-146414716D01*
X134943795Y-146415284D01*
X135544943Y-146166894D01*
X135890199Y-145822241D01*
X136232637Y-146165278D01*
X136833352Y-146414716D01*
X137483795Y-146415284D01*
X138084943Y-146166894D01*
X138430199Y-145822241D01*
X138772637Y-146165278D01*
X139373352Y-146414716D01*
X140023795Y-146415284D01*
X140624943Y-146166894D01*
X140970199Y-145822241D01*
X141312637Y-146165278D01*
X141913352Y-146414716D01*
X142563795Y-146415284D01*
X143164943Y-146166894D01*
X143399715Y-145932532D01*
X143807073Y-145932532D01*
X143905736Y-146199387D01*
X144515461Y-146425908D01*
X145165460Y-146401856D01*
X145654264Y-146199387D01*
X145752927Y-145932532D01*
X144780000Y-144959605D01*
X143807073Y-145932532D01*
X143399715Y-145932532D01*
X143592562Y-145740022D01*
X143627468Y-145752927D01*
X144600395Y-144780000D01*
X144959605Y-144780000D01*
X145932532Y-145752927D01*
X146199387Y-145654264D01*
X146425908Y-145044539D01*
X146401856Y-144394540D01*
X146199387Y-143905736D01*
X145932532Y-143807073D01*
X144959605Y-144780000D01*
X144600395Y-144780000D01*
X143627468Y-143807073D01*
X143592062Y-143820164D01*
X143399703Y-143627468D01*
X143807073Y-143627468D01*
X144780000Y-144600395D01*
X145752927Y-143627468D01*
X145654264Y-143360613D01*
X145044539Y-143134092D01*
X144394540Y-143158144D01*
X143905736Y-143360613D01*
X143807073Y-143627468D01*
X143399703Y-143627468D01*
X143167363Y-143394722D01*
X142566648Y-143145284D01*
X141916205Y-143144716D01*
X141315057Y-143393106D01*
X140969801Y-143737759D01*
X140627363Y-143394722D01*
X140026648Y-143145284D01*
X139376205Y-143144716D01*
X138775057Y-143393106D01*
X138429801Y-143737759D01*
X138087363Y-143394722D01*
X137486648Y-143145284D01*
X136836205Y-143144716D01*
X136235057Y-143393106D01*
X135889801Y-143737759D01*
X135547363Y-143394722D01*
X134946648Y-143145284D01*
X134296205Y-143144716D01*
X133695057Y-143393106D01*
X133349801Y-143737759D01*
X133007363Y-143394722D01*
X132406648Y-143145284D01*
X131756205Y-143144716D01*
X131155057Y-143393106D01*
X130809801Y-143737759D01*
X130467363Y-143394722D01*
X129866648Y-143145284D01*
X129216205Y-143144716D01*
X128615057Y-143393106D01*
X128269801Y-143737759D01*
X127927363Y-143394722D01*
X127326648Y-143145284D01*
X126676205Y-143144716D01*
X126075057Y-143393106D01*
X125729801Y-143737759D01*
X125387363Y-143394722D01*
X124786648Y-143145284D01*
X124136205Y-143144716D01*
X123535057Y-143393106D01*
X123189801Y-143737759D01*
X122847363Y-143394722D01*
X122246648Y-143145284D01*
X121596205Y-143144716D01*
X120995057Y-143393106D01*
X120649801Y-143737759D01*
X120307363Y-143394722D01*
X119706648Y-143145284D01*
X119056205Y-143144716D01*
X118455057Y-143393106D01*
X118109801Y-143737759D01*
X117767363Y-143394722D01*
X117166648Y-143145284D01*
X116516205Y-143144716D01*
X115915057Y-143393106D01*
X115569801Y-143737759D01*
X115227363Y-143394722D01*
X114626648Y-143145284D01*
X113976205Y-143144716D01*
X113375057Y-143393106D01*
X112947438Y-143819978D01*
X112912532Y-143807073D01*
X111939605Y-144780000D01*
X111580395Y-144780000D01*
X110607468Y-143807073D01*
X110340613Y-143905736D01*
X110114092Y-144515461D01*
X84530000Y-144515461D01*
X84530000Y-143627468D01*
X110787073Y-143627468D01*
X111760000Y-144600395D01*
X112732927Y-143627468D01*
X112634264Y-143360613D01*
X112024539Y-143134092D01*
X111374540Y-143158144D01*
X110885736Y-143360613D01*
X110787073Y-143627468D01*
X84530000Y-143627468D01*
X84530000Y-108051189D01*
X88655000Y-108051189D01*
X88655000Y-140868811D01*
X93725000Y-140868811D01*
X93725000Y-139654868D01*
X161514737Y-139654868D01*
X161625641Y-139932099D01*
X162271593Y-140175323D01*
X162961453Y-140152836D01*
X163494359Y-139932099D01*
X163605263Y-139654868D01*
X162560000Y-138609605D01*
X161514737Y-139654868D01*
X93725000Y-139654868D01*
X93725000Y-138141593D01*
X160814677Y-138141593D01*
X160837164Y-138831453D01*
X161057901Y-139364359D01*
X161335132Y-139475263D01*
X162380395Y-138430000D01*
X162739605Y-138430000D01*
X163784868Y-139475263D01*
X164062099Y-139364359D01*
X164305323Y-138718407D01*
X164282836Y-138028547D01*
X164062099Y-137495641D01*
X163784868Y-137384737D01*
X162739605Y-138430000D01*
X162380395Y-138430000D01*
X161335132Y-137384737D01*
X161057901Y-137495641D01*
X160814677Y-138141593D01*
X93725000Y-138141593D01*
X93725000Y-108051189D01*
X88655000Y-108051189D01*
X84530000Y-108051189D01*
X84530000Y-101611812D01*
X91745736Y-101611812D01*
X91977262Y-102172149D01*
X92405596Y-102601231D01*
X92965528Y-102833735D01*
X93571812Y-102834264D01*
X94132149Y-102602738D01*
X94561231Y-102174404D01*
X94793735Y-101614472D01*
X94793737Y-101611812D01*
X98245736Y-101611812D01*
X98477262Y-102172149D01*
X98905596Y-102601231D01*
X99465528Y-102833735D01*
X99677340Y-102833920D01*
X116769208Y-119925787D01*
X116769210Y-119925790D01*
X117056325Y-120117633D01*
X117112516Y-120128810D01*
X117395000Y-120185001D01*
X117395005Y-120185000D01*
X123056602Y-120185000D01*
X123073106Y-120224943D01*
X123532637Y-120685278D01*
X123575000Y-120702869D01*
X123575000Y-128136602D01*
X123535057Y-128153106D01*
X123189801Y-128497759D01*
X122847363Y-128154722D01*
X122246648Y-127905284D01*
X121596205Y-127904716D01*
X120995057Y-128153106D01*
X120649801Y-128497759D01*
X120307363Y-128154722D01*
X119706648Y-127905284D01*
X119056205Y-127904716D01*
X118455057Y-128153106D01*
X118109801Y-128497759D01*
X117767363Y-128154722D01*
X117166648Y-127905284D01*
X116516205Y-127904716D01*
X115915057Y-128153106D01*
X115569801Y-128497759D01*
X115227363Y-128154722D01*
X114626648Y-127905284D01*
X113976205Y-127904716D01*
X113375057Y-128153106D01*
X113029801Y-128497759D01*
X112687363Y-128154722D01*
X112086648Y-127905284D01*
X111436205Y-127904716D01*
X110835057Y-128153106D01*
X110374722Y-128612637D01*
X110125284Y-129213352D01*
X110124716Y-129863795D01*
X110373106Y-130464943D01*
X110832637Y-130925278D01*
X111433352Y-131174716D01*
X112083795Y-131175284D01*
X112126188Y-131157768D01*
X117484208Y-136515787D01*
X117484210Y-136515790D01*
X117736969Y-136684677D01*
X117771325Y-136707633D01*
X118110000Y-136775001D01*
X118110005Y-136775000D01*
X161048402Y-136775000D01*
X161088281Y-136871515D01*
X161575918Y-137360004D01*
X161736139Y-137426534D01*
X162560000Y-138250395D01*
X163383305Y-137427090D01*
X163541515Y-137361719D01*
X164030004Y-136874082D01*
X164294699Y-136236627D01*
X164295300Y-135547700D01*
X167701500Y-132141500D01*
X167915021Y-131821943D01*
X167990000Y-131445000D01*
X167990000Y-113745000D01*
X167915021Y-113368057D01*
X167701500Y-113048500D01*
X164194790Y-109541790D01*
X164195284Y-108976205D01*
X163946894Y-108375057D01*
X163487363Y-107914722D01*
X162886648Y-107665284D01*
X162236205Y-107664716D01*
X161635057Y-107913106D01*
X161232460Y-108315000D01*
X156266942Y-108315000D01*
X156152143Y-108200000D01*
X158114995Y-108200000D01*
X158115000Y-108200001D01*
X158397484Y-108143810D01*
X158453675Y-108132633D01*
X158740790Y-107940790D01*
X163895787Y-102785792D01*
X163895790Y-102785790D01*
X163974606Y-102667833D01*
X164132149Y-102602738D01*
X164561231Y-102174404D01*
X164793735Y-101614472D01*
X164794264Y-101008188D01*
X164562738Y-100447851D01*
X164134404Y-100018769D01*
X163574472Y-99786265D01*
X162968188Y-99785736D01*
X162407851Y-100017262D01*
X161978769Y-100445596D01*
X161746265Y-101005528D01*
X161745736Y-101611812D01*
X161977262Y-102172149D01*
X161991754Y-102186667D01*
X157748420Y-106430000D01*
X147551580Y-106430000D01*
X151195787Y-102785792D01*
X151195790Y-102785790D01*
X151274606Y-102667833D01*
X151432149Y-102602738D01*
X151861231Y-102174404D01*
X152093735Y-101614472D01*
X152093737Y-101611812D01*
X155245736Y-101611812D01*
X155477262Y-102172149D01*
X155905596Y-102601231D01*
X156465528Y-102833735D01*
X157071812Y-102834264D01*
X157632149Y-102602738D01*
X158061231Y-102174404D01*
X158293735Y-101614472D01*
X158294264Y-101008188D01*
X158062738Y-100447851D01*
X157634404Y-100018769D01*
X157074472Y-99786265D01*
X156468188Y-99785736D01*
X155907851Y-100017262D01*
X155478769Y-100445596D01*
X155246265Y-101005528D01*
X155245736Y-101611812D01*
X152093737Y-101611812D01*
X152094264Y-101008188D01*
X151862738Y-100447851D01*
X151434404Y-100018769D01*
X150874472Y-99786265D01*
X150268188Y-99785736D01*
X149707851Y-100017262D01*
X149278769Y-100445596D01*
X149046265Y-101005528D01*
X149045736Y-101611812D01*
X149277262Y-102172149D01*
X149291754Y-102186667D01*
X146318420Y-105160000D01*
X136121580Y-105160000D01*
X138495787Y-102785792D01*
X138495790Y-102785790D01*
X138574606Y-102667833D01*
X138732149Y-102602738D01*
X139161231Y-102174404D01*
X139393735Y-101614472D01*
X139393737Y-101611812D01*
X142545736Y-101611812D01*
X142777262Y-102172149D01*
X143205596Y-102601231D01*
X143765528Y-102833735D01*
X144371812Y-102834264D01*
X144932149Y-102602738D01*
X145361231Y-102174404D01*
X145593735Y-101614472D01*
X145594264Y-101008188D01*
X145362738Y-100447851D01*
X144934404Y-100018769D01*
X144374472Y-99786265D01*
X143768188Y-99785736D01*
X143207851Y-100017262D01*
X142778769Y-100445596D01*
X142546265Y-101005528D01*
X142545736Y-101611812D01*
X139393737Y-101611812D01*
X139394264Y-101008188D01*
X139162738Y-100447851D01*
X138734404Y-100018769D01*
X138174472Y-99786265D01*
X137568188Y-99785736D01*
X137007851Y-100017262D01*
X136578769Y-100445596D01*
X136346265Y-101005528D01*
X136345736Y-101611812D01*
X136577262Y-102172149D01*
X136591754Y-102186667D01*
X134888420Y-103890000D01*
X124056580Y-103890000D01*
X125112629Y-102833951D01*
X125471812Y-102834264D01*
X126032149Y-102602738D01*
X126461231Y-102174404D01*
X126693735Y-101614472D01*
X126693737Y-101611812D01*
X129845736Y-101611812D01*
X130077262Y-102172149D01*
X130505596Y-102601231D01*
X131065528Y-102833735D01*
X131671812Y-102834264D01*
X132232149Y-102602738D01*
X132661231Y-102174404D01*
X132893735Y-101614472D01*
X132894264Y-101008188D01*
X132662738Y-100447851D01*
X132234404Y-100018769D01*
X131674472Y-99786265D01*
X131068188Y-99785736D01*
X130507851Y-100017262D01*
X130078769Y-100445596D01*
X129846265Y-101005528D01*
X129845736Y-101611812D01*
X126693737Y-101611812D01*
X126694264Y-101008188D01*
X126462738Y-100447851D01*
X126034404Y-100018769D01*
X125474472Y-99786265D01*
X124868188Y-99785736D01*
X124307851Y-100017262D01*
X123878769Y-100445596D01*
X123646265Y-101005528D01*
X123645736Y-101611812D01*
X123700082Y-101743339D01*
X122823420Y-102620000D01*
X119490372Y-102620000D01*
X119532149Y-102602738D01*
X119961231Y-102174404D01*
X120193735Y-101614472D01*
X120194264Y-101008188D01*
X119962738Y-100447851D01*
X119534404Y-100018769D01*
X118974472Y-99786265D01*
X118368188Y-99785736D01*
X117807851Y-100017262D01*
X117378769Y-100445596D01*
X117146265Y-101005528D01*
X117145736Y-101611812D01*
X117377262Y-102172149D01*
X117805596Y-102601231D01*
X118255590Y-102788085D01*
X118119210Y-102879210D01*
X117927367Y-103166325D01*
X117860000Y-103505000D01*
X117860000Y-114935000D01*
X117927367Y-115273675D01*
X117958320Y-115320000D01*
X117841579Y-115320000D01*
X113355000Y-110833420D01*
X113355000Y-102579927D01*
X113761231Y-102174404D01*
X113993735Y-101614472D01*
X113994264Y-101008188D01*
X113762738Y-100447851D01*
X113334404Y-100018769D01*
X112774472Y-99786265D01*
X112168188Y-99785736D01*
X111607851Y-100017262D01*
X111178769Y-100445596D01*
X110946265Y-101005528D01*
X110945736Y-101611812D01*
X111177262Y-102172149D01*
X111585000Y-102580599D01*
X111585000Y-111199995D01*
X111584999Y-111200000D01*
X111637448Y-111463674D01*
X111652367Y-111538675D01*
X111794097Y-111750790D01*
X111844210Y-111825790D01*
X116849208Y-116830787D01*
X116849210Y-116830790D01*
X117136325Y-117022633D01*
X117192516Y-117033810D01*
X117475000Y-117090001D01*
X117475005Y-117090000D01*
X128618420Y-117090000D01*
X130461858Y-118933437D01*
X130445284Y-118973352D01*
X130444716Y-119623795D01*
X130693106Y-120224943D01*
X131152637Y-120685278D01*
X131195000Y-120702869D01*
X131195000Y-124093421D01*
X127366562Y-127921858D01*
X127326648Y-127905284D01*
X126676205Y-127904716D01*
X126075057Y-128153106D01*
X125729801Y-128497759D01*
X125387363Y-128154722D01*
X125345000Y-128137131D01*
X125345000Y-120703398D01*
X125384943Y-120686894D01*
X125845278Y-120227363D01*
X126094716Y-119626648D01*
X126095284Y-118976205D01*
X125846894Y-118375057D01*
X125387363Y-117914722D01*
X124786648Y-117665284D01*
X124136205Y-117664716D01*
X123535057Y-117913106D01*
X123074722Y-118372637D01*
X123057131Y-118415000D01*
X117761579Y-118415000D01*
X101196124Y-101849544D01*
X101293735Y-101614472D01*
X101293737Y-101611812D01*
X104445736Y-101611812D01*
X104677262Y-102172149D01*
X105105596Y-102601231D01*
X105665528Y-102833735D01*
X106271812Y-102834264D01*
X106832149Y-102602738D01*
X107261231Y-102174404D01*
X107493735Y-101614472D01*
X107494264Y-101008188D01*
X107262738Y-100447851D01*
X106834404Y-100018769D01*
X106274472Y-99786265D01*
X105668188Y-99785736D01*
X105107851Y-100017262D01*
X104678769Y-100445596D01*
X104446265Y-101005528D01*
X104445736Y-101611812D01*
X101293737Y-101611812D01*
X101294264Y-101008188D01*
X101062738Y-100447851D01*
X100634404Y-100018769D01*
X100074472Y-99786265D01*
X99468188Y-99785736D01*
X98907851Y-100017262D01*
X98478769Y-100445596D01*
X98246265Y-101005528D01*
X98245736Y-101611812D01*
X94793737Y-101611812D01*
X94794264Y-101008188D01*
X94562738Y-100447851D01*
X94134404Y-100018769D01*
X93574472Y-99786265D01*
X92968188Y-99785736D01*
X92407851Y-100017262D01*
X91978769Y-100445596D01*
X91746265Y-101005528D01*
X91745736Y-101611812D01*
X84530000Y-101611812D01*
X84530000Y-97111812D01*
X91745736Y-97111812D01*
X91977262Y-97672149D01*
X92405596Y-98101231D01*
X92965528Y-98333735D01*
X93571812Y-98334264D01*
X94132149Y-98102738D01*
X94353076Y-97882196D01*
X98877409Y-97882196D01*
X98962467Y-98137539D01*
X99531965Y-98345516D01*
X100137700Y-98319723D01*
X100577533Y-98137539D01*
X100662591Y-97882196D01*
X99770000Y-96989605D01*
X98877409Y-97882196D01*
X94353076Y-97882196D01*
X94561231Y-97674404D01*
X94793735Y-97114472D01*
X94794208Y-96571965D01*
X98234484Y-96571965D01*
X98260277Y-97177700D01*
X98442461Y-97617533D01*
X98697804Y-97702591D01*
X99590395Y-96810000D01*
X99949605Y-96810000D01*
X100842196Y-97702591D01*
X101097539Y-97617533D01*
X101282225Y-97111812D01*
X104445736Y-97111812D01*
X104677262Y-97672149D01*
X105105596Y-98101231D01*
X105665528Y-98333735D01*
X106271812Y-98334264D01*
X106832149Y-98102738D01*
X107053076Y-97882196D01*
X111577409Y-97882196D01*
X111662467Y-98137539D01*
X112231965Y-98345516D01*
X112837700Y-98319723D01*
X113277533Y-98137539D01*
X113362591Y-97882196D01*
X112470000Y-96989605D01*
X111577409Y-97882196D01*
X107053076Y-97882196D01*
X107261231Y-97674404D01*
X107493735Y-97114472D01*
X107494208Y-96571965D01*
X110934484Y-96571965D01*
X110960277Y-97177700D01*
X111142461Y-97617533D01*
X111397804Y-97702591D01*
X112290395Y-96810000D01*
X112649605Y-96810000D01*
X113542196Y-97702591D01*
X113797539Y-97617533D01*
X113982225Y-97111812D01*
X117145736Y-97111812D01*
X117377262Y-97672149D01*
X117805596Y-98101231D01*
X118365528Y-98333735D01*
X118971812Y-98334264D01*
X119532149Y-98102738D01*
X119753076Y-97882196D01*
X124277409Y-97882196D01*
X124362467Y-98137539D01*
X124931965Y-98345516D01*
X125537700Y-98319723D01*
X125977533Y-98137539D01*
X126062591Y-97882196D01*
X125170000Y-96989605D01*
X124277409Y-97882196D01*
X119753076Y-97882196D01*
X119961231Y-97674404D01*
X120193735Y-97114472D01*
X120194208Y-96571965D01*
X123634484Y-96571965D01*
X123660277Y-97177700D01*
X123842461Y-97617533D01*
X124097804Y-97702591D01*
X124990395Y-96810000D01*
X125349605Y-96810000D01*
X126242196Y-97702591D01*
X126497539Y-97617533D01*
X126682225Y-97111812D01*
X129845736Y-97111812D01*
X130077262Y-97672149D01*
X130505596Y-98101231D01*
X131065528Y-98333735D01*
X131671812Y-98334264D01*
X132232149Y-98102738D01*
X132453076Y-97882196D01*
X136977409Y-97882196D01*
X137062467Y-98137539D01*
X137631965Y-98345516D01*
X138237700Y-98319723D01*
X138677533Y-98137539D01*
X138762591Y-97882196D01*
X137870000Y-96989605D01*
X136977409Y-97882196D01*
X132453076Y-97882196D01*
X132661231Y-97674404D01*
X132893735Y-97114472D01*
X132894208Y-96571965D01*
X136334484Y-96571965D01*
X136360277Y-97177700D01*
X136542461Y-97617533D01*
X136797804Y-97702591D01*
X137690395Y-96810000D01*
X138049605Y-96810000D01*
X138942196Y-97702591D01*
X139197539Y-97617533D01*
X139382225Y-97111812D01*
X142545736Y-97111812D01*
X142777262Y-97672149D01*
X143205596Y-98101231D01*
X143765528Y-98333735D01*
X144371812Y-98334264D01*
X144932149Y-98102738D01*
X145153076Y-97882196D01*
X149677409Y-97882196D01*
X149762467Y-98137539D01*
X150331965Y-98345516D01*
X150937700Y-98319723D01*
X151377533Y-98137539D01*
X151462591Y-97882196D01*
X150570000Y-96989605D01*
X149677409Y-97882196D01*
X145153076Y-97882196D01*
X145361231Y-97674404D01*
X145593735Y-97114472D01*
X145594208Y-96571965D01*
X149034484Y-96571965D01*
X149060277Y-97177700D01*
X149242461Y-97617533D01*
X149497804Y-97702591D01*
X150390395Y-96810000D01*
X150749605Y-96810000D01*
X151642196Y-97702591D01*
X151897539Y-97617533D01*
X152082225Y-97111812D01*
X155245736Y-97111812D01*
X155477262Y-97672149D01*
X155905596Y-98101231D01*
X156465528Y-98333735D01*
X157071812Y-98334264D01*
X157632149Y-98102738D01*
X157853076Y-97882196D01*
X162377409Y-97882196D01*
X162462467Y-98137539D01*
X163031965Y-98345516D01*
X163637700Y-98319723D01*
X164077533Y-98137539D01*
X164162591Y-97882196D01*
X163270000Y-96989605D01*
X162377409Y-97882196D01*
X157853076Y-97882196D01*
X158061231Y-97674404D01*
X158293735Y-97114472D01*
X158294208Y-96571965D01*
X161734484Y-96571965D01*
X161760277Y-97177700D01*
X161942461Y-97617533D01*
X162197804Y-97702591D01*
X163090395Y-96810000D01*
X163449605Y-96810000D01*
X164342196Y-97702591D01*
X164597539Y-97617533D01*
X164805516Y-97048035D01*
X164779723Y-96442300D01*
X164597539Y-96002467D01*
X164342196Y-95917409D01*
X163449605Y-96810000D01*
X163090395Y-96810000D01*
X162197804Y-95917409D01*
X161942461Y-96002467D01*
X161734484Y-96571965D01*
X158294208Y-96571965D01*
X158294264Y-96508188D01*
X158062738Y-95947851D01*
X157853058Y-95737804D01*
X162377409Y-95737804D01*
X163270000Y-96630395D01*
X164162591Y-95737804D01*
X164077533Y-95482461D01*
X163508035Y-95274484D01*
X162902300Y-95300277D01*
X162462467Y-95482461D01*
X162377409Y-95737804D01*
X157853058Y-95737804D01*
X157634404Y-95518769D01*
X157074472Y-95286265D01*
X156468188Y-95285736D01*
X155907851Y-95517262D01*
X155478769Y-95945596D01*
X155246265Y-96505528D01*
X155245736Y-97111812D01*
X152082225Y-97111812D01*
X152105516Y-97048035D01*
X152079723Y-96442300D01*
X151897539Y-96002467D01*
X151642196Y-95917409D01*
X150749605Y-96810000D01*
X150390395Y-96810000D01*
X149497804Y-95917409D01*
X149242461Y-96002467D01*
X149034484Y-96571965D01*
X145594208Y-96571965D01*
X145594264Y-96508188D01*
X145362738Y-95947851D01*
X145153058Y-95737804D01*
X149677409Y-95737804D01*
X150570000Y-96630395D01*
X151462591Y-95737804D01*
X151377533Y-95482461D01*
X150808035Y-95274484D01*
X150202300Y-95300277D01*
X149762467Y-95482461D01*
X149677409Y-95737804D01*
X145153058Y-95737804D01*
X144934404Y-95518769D01*
X144374472Y-95286265D01*
X143768188Y-95285736D01*
X143207851Y-95517262D01*
X142778769Y-95945596D01*
X142546265Y-96505528D01*
X142545736Y-97111812D01*
X139382225Y-97111812D01*
X139405516Y-97048035D01*
X139379723Y-96442300D01*
X139197539Y-96002467D01*
X138942196Y-95917409D01*
X138049605Y-96810000D01*
X137690395Y-96810000D01*
X136797804Y-95917409D01*
X136542461Y-96002467D01*
X136334484Y-96571965D01*
X132894208Y-96571965D01*
X132894264Y-96508188D01*
X132662738Y-95947851D01*
X132453058Y-95737804D01*
X136977409Y-95737804D01*
X137870000Y-96630395D01*
X138762591Y-95737804D01*
X138677533Y-95482461D01*
X138108035Y-95274484D01*
X137502300Y-95300277D01*
X137062467Y-95482461D01*
X136977409Y-95737804D01*
X132453058Y-95737804D01*
X132234404Y-95518769D01*
X131674472Y-95286265D01*
X131068188Y-95285736D01*
X130507851Y-95517262D01*
X130078769Y-95945596D01*
X129846265Y-96505528D01*
X129845736Y-97111812D01*
X126682225Y-97111812D01*
X126705516Y-97048035D01*
X126679723Y-96442300D01*
X126497539Y-96002467D01*
X126242196Y-95917409D01*
X125349605Y-96810000D01*
X124990395Y-96810000D01*
X124097804Y-95917409D01*
X123842461Y-96002467D01*
X123634484Y-96571965D01*
X120194208Y-96571965D01*
X120194264Y-96508188D01*
X119962738Y-95947851D01*
X119753058Y-95737804D01*
X124277409Y-95737804D01*
X125170000Y-96630395D01*
X126062591Y-95737804D01*
X125977533Y-95482461D01*
X125408035Y-95274484D01*
X124802300Y-95300277D01*
X124362467Y-95482461D01*
X124277409Y-95737804D01*
X119753058Y-95737804D01*
X119534404Y-95518769D01*
X118974472Y-95286265D01*
X118368188Y-95285736D01*
X117807851Y-95517262D01*
X117378769Y-95945596D01*
X117146265Y-96505528D01*
X117145736Y-97111812D01*
X113982225Y-97111812D01*
X114005516Y-97048035D01*
X113979723Y-96442300D01*
X113797539Y-96002467D01*
X113542196Y-95917409D01*
X112649605Y-96810000D01*
X112290395Y-96810000D01*
X111397804Y-95917409D01*
X111142461Y-96002467D01*
X110934484Y-96571965D01*
X107494208Y-96571965D01*
X107494264Y-96508188D01*
X107262738Y-95947851D01*
X107053058Y-95737804D01*
X111577409Y-95737804D01*
X112470000Y-96630395D01*
X113362591Y-95737804D01*
X113277533Y-95482461D01*
X112708035Y-95274484D01*
X112102300Y-95300277D01*
X111662467Y-95482461D01*
X111577409Y-95737804D01*
X107053058Y-95737804D01*
X106834404Y-95518769D01*
X106274472Y-95286265D01*
X105668188Y-95285736D01*
X105107851Y-95517262D01*
X104678769Y-95945596D01*
X104446265Y-96505528D01*
X104445736Y-97111812D01*
X101282225Y-97111812D01*
X101305516Y-97048035D01*
X101279723Y-96442300D01*
X101097539Y-96002467D01*
X100842196Y-95917409D01*
X99949605Y-96810000D01*
X99590395Y-96810000D01*
X98697804Y-95917409D01*
X98442461Y-96002467D01*
X98234484Y-96571965D01*
X94794208Y-96571965D01*
X94794264Y-96508188D01*
X94562738Y-95947851D01*
X94353058Y-95737804D01*
X98877409Y-95737804D01*
X99770000Y-96630395D01*
X100662591Y-95737804D01*
X100577533Y-95482461D01*
X100008035Y-95274484D01*
X99402300Y-95300277D01*
X98962467Y-95482461D01*
X98877409Y-95737804D01*
X94353058Y-95737804D01*
X94134404Y-95518769D01*
X93574472Y-95286265D01*
X92968188Y-95285736D01*
X92407851Y-95517262D01*
X91978769Y-95945596D01*
X91746265Y-96505528D01*
X91745736Y-97111812D01*
X84530000Y-97111812D01*
X84530000Y-92059270D01*
X85772458Y-92059270D01*
X86247512Y-93208989D01*
X87126384Y-94089396D01*
X88275272Y-94566456D01*
X89519270Y-94567542D01*
X90668989Y-94092488D01*
X91549396Y-93213616D01*
X92026456Y-92064728D01*
X92026460Y-92059270D01*
X167052458Y-92059270D01*
X167527512Y-93208989D01*
X168406384Y-94089396D01*
X169555272Y-94566456D01*
X170799270Y-94567542D01*
X171948989Y-94092488D01*
X172829396Y-93213616D01*
X173306456Y-92064728D01*
X173307542Y-90820730D01*
X172832488Y-89671011D01*
X171953616Y-88790604D01*
X170804728Y-88313544D01*
X169560730Y-88312458D01*
X168411011Y-88787512D01*
X167530604Y-89666384D01*
X167053544Y-90815272D01*
X167052458Y-92059270D01*
X92026460Y-92059270D01*
X92027542Y-90820730D01*
X91552488Y-89671011D01*
X90673616Y-88790604D01*
X89524728Y-88313544D01*
X88280730Y-88312458D01*
X87131011Y-88787512D01*
X86250604Y-89666384D01*
X85773544Y-90815272D01*
X85772458Y-92059270D01*
X84530000Y-92059270D01*
X84530000Y-87070000D01*
X174550000Y-87070000D01*
X174550000Y-154230000D01*
X174550000Y-154230000D01*
G37*
X174550000Y-154230000D02*
X84530000Y-154230000D01*
X84530000Y-150479270D01*
X85772458Y-150479270D01*
X86247512Y-151628989D01*
X87126384Y-152509396D01*
X88275272Y-152986456D01*
X89519270Y-152987542D01*
X90668989Y-152512488D01*
X91549396Y-151633616D01*
X92026456Y-150484728D01*
X92026460Y-150479270D01*
X167052458Y-150479270D01*
X167527512Y-151628989D01*
X168406384Y-152509396D01*
X169555272Y-152986456D01*
X170799270Y-152987542D01*
X171948989Y-152512488D01*
X172829396Y-151633616D01*
X173306456Y-150484728D01*
X173307542Y-149240730D01*
X172832488Y-148091011D01*
X171953616Y-147210604D01*
X170804728Y-146733544D01*
X169560730Y-146732458D01*
X168411011Y-147207512D01*
X167530604Y-148086384D01*
X167053544Y-149235272D01*
X167052458Y-150479270D01*
X92026460Y-150479270D01*
X92027542Y-149240730D01*
X91552488Y-148091011D01*
X90673616Y-147210604D01*
X89524728Y-146733544D01*
X88280730Y-146732458D01*
X87131011Y-147207512D01*
X86250604Y-148086384D01*
X85773544Y-149235272D01*
X85772458Y-150479270D01*
X84530000Y-150479270D01*
X84530000Y-145932532D01*
X110787073Y-145932532D01*
X110885736Y-146199387D01*
X111495461Y-146425908D01*
X112145460Y-146401856D01*
X112634264Y-146199387D01*
X112732927Y-145932532D01*
X111760000Y-144959605D01*
X110787073Y-145932532D01*
X84530000Y-145932532D01*
X84530000Y-144515461D01*
X110114092Y-144515461D01*
X110138144Y-145165460D01*
X110340613Y-145654264D01*
X110607468Y-145752927D01*
X111580395Y-144780000D01*
X111939605Y-144780000D01*
X112912532Y-145752927D01*
X112947938Y-145739836D01*
X113372637Y-146165278D01*
X113973352Y-146414716D01*
X114623795Y-146415284D01*
X115224943Y-146166894D01*
X115570199Y-145822241D01*
X115912637Y-146165278D01*
X116513352Y-146414716D01*
X117163795Y-146415284D01*
X117764943Y-146166894D01*
X118110199Y-145822241D01*
X118452637Y-146165278D01*
X119053352Y-146414716D01*
X119703795Y-146415284D01*
X120304943Y-146166894D01*
X120650199Y-145822241D01*
X120992637Y-146165278D01*
X121593352Y-146414716D01*
X122243795Y-146415284D01*
X122844943Y-146166894D01*
X123190199Y-145822241D01*
X123532637Y-146165278D01*
X124133352Y-146414716D01*
X124783795Y-146415284D01*
X125384943Y-146166894D01*
X125730199Y-145822241D01*
X126072637Y-146165278D01*
X126673352Y-146414716D01*
X127323795Y-146415284D01*
X127924943Y-146166894D01*
X128270199Y-145822241D01*
X128612637Y-146165278D01*
X129213352Y-146414716D01*
X129863795Y-146415284D01*
X130464943Y-146166894D01*
X130810199Y-145822241D01*
X131152637Y-146165278D01*
X131753352Y-146414716D01*
X132403795Y-146415284D01*
X133004943Y-146166894D01*
X133350199Y-145822241D01*
X133692637Y-146165278D01*
X134293352Y-146414716D01*
X134943795Y-146415284D01*
X135544943Y-146166894D01*
X135890199Y-145822241D01*
X136232637Y-146165278D01*
X136833352Y-146414716D01*
X137483795Y-146415284D01*
X138084943Y-146166894D01*
X138430199Y-145822241D01*
X138772637Y-146165278D01*
X139373352Y-146414716D01*
X140023795Y-146415284D01*
X140624943Y-146166894D01*
X140970199Y-145822241D01*
X141312637Y-146165278D01*
X141913352Y-146414716D01*
X142563795Y-146415284D01*
X143164943Y-146166894D01*
X143399715Y-145932532D01*
X143807073Y-145932532D01*
X143905736Y-146199387D01*
X144515461Y-146425908D01*
X145165460Y-146401856D01*
X145654264Y-146199387D01*
X145752927Y-145932532D01*
X144780000Y-144959605D01*
X143807073Y-145932532D01*
X143399715Y-145932532D01*
X143592562Y-145740022D01*
X143627468Y-145752927D01*
X144600395Y-144780000D01*
X144959605Y-144780000D01*
X145932532Y-145752927D01*
X146199387Y-145654264D01*
X146425908Y-145044539D01*
X146401856Y-144394540D01*
X146199387Y-143905736D01*
X145932532Y-143807073D01*
X144959605Y-144780000D01*
X144600395Y-144780000D01*
X143627468Y-143807073D01*
X143592062Y-143820164D01*
X143399703Y-143627468D01*
X143807073Y-143627468D01*
X144780000Y-144600395D01*
X145752927Y-143627468D01*
X145654264Y-143360613D01*
X145044539Y-143134092D01*
X144394540Y-143158144D01*
X143905736Y-143360613D01*
X143807073Y-143627468D01*
X143399703Y-143627468D01*
X143167363Y-143394722D01*
X142566648Y-143145284D01*
X141916205Y-143144716D01*
X141315057Y-143393106D01*
X140969801Y-143737759D01*
X140627363Y-143394722D01*
X140026648Y-143145284D01*
X139376205Y-143144716D01*
X138775057Y-143393106D01*
X138429801Y-143737759D01*
X138087363Y-143394722D01*
X137486648Y-143145284D01*
X136836205Y-143144716D01*
X136235057Y-143393106D01*
X135889801Y-143737759D01*
X135547363Y-143394722D01*
X134946648Y-143145284D01*
X134296205Y-143144716D01*
X133695057Y-143393106D01*
X133349801Y-143737759D01*
X133007363Y-143394722D01*
X132406648Y-143145284D01*
X131756205Y-143144716D01*
X131155057Y-143393106D01*
X130809801Y-143737759D01*
X130467363Y-143394722D01*
X129866648Y-143145284D01*
X129216205Y-143144716D01*
X128615057Y-143393106D01*
X128269801Y-143737759D01*
X127927363Y-143394722D01*
X127326648Y-143145284D01*
X126676205Y-143144716D01*
X126075057Y-143393106D01*
X125729801Y-143737759D01*
X125387363Y-143394722D01*
X124786648Y-143145284D01*
X124136205Y-143144716D01*
X123535057Y-143393106D01*
X123189801Y-143737759D01*
X122847363Y-143394722D01*
X122246648Y-143145284D01*
X121596205Y-143144716D01*
X120995057Y-143393106D01*
X120649801Y-143737759D01*
X120307363Y-143394722D01*
X119706648Y-143145284D01*
X119056205Y-143144716D01*
X118455057Y-143393106D01*
X118109801Y-143737759D01*
X117767363Y-143394722D01*
X117166648Y-143145284D01*
X116516205Y-143144716D01*
X115915057Y-143393106D01*
X115569801Y-143737759D01*
X115227363Y-143394722D01*
X114626648Y-143145284D01*
X113976205Y-143144716D01*
X113375057Y-143393106D01*
X112947438Y-143819978D01*
X112912532Y-143807073D01*
X111939605Y-144780000D01*
X111580395Y-144780000D01*
X110607468Y-143807073D01*
X110340613Y-143905736D01*
X110114092Y-144515461D01*
X84530000Y-144515461D01*
X84530000Y-143627468D01*
X110787073Y-143627468D01*
X111760000Y-144600395D01*
X112732927Y-143627468D01*
X112634264Y-143360613D01*
X112024539Y-143134092D01*
X111374540Y-143158144D01*
X110885736Y-143360613D01*
X110787073Y-143627468D01*
X84530000Y-143627468D01*
X84530000Y-108051189D01*
X88655000Y-108051189D01*
X88655000Y-140868811D01*
X93725000Y-140868811D01*
X93725000Y-139654868D01*
X161514737Y-139654868D01*
X161625641Y-139932099D01*
X162271593Y-140175323D01*
X162961453Y-140152836D01*
X163494359Y-139932099D01*
X163605263Y-139654868D01*
X162560000Y-138609605D01*
X161514737Y-139654868D01*
X93725000Y-139654868D01*
X93725000Y-138141593D01*
X160814677Y-138141593D01*
X160837164Y-138831453D01*
X161057901Y-139364359D01*
X161335132Y-139475263D01*
X162380395Y-138430000D01*
X162739605Y-138430000D01*
X163784868Y-139475263D01*
X164062099Y-139364359D01*
X164305323Y-138718407D01*
X164282836Y-138028547D01*
X164062099Y-137495641D01*
X163784868Y-137384737D01*
X162739605Y-138430000D01*
X162380395Y-138430000D01*
X161335132Y-137384737D01*
X161057901Y-137495641D01*
X160814677Y-138141593D01*
X93725000Y-138141593D01*
X93725000Y-108051189D01*
X88655000Y-108051189D01*
X84530000Y-108051189D01*
X84530000Y-101611812D01*
X91745736Y-101611812D01*
X91977262Y-102172149D01*
X92405596Y-102601231D01*
X92965528Y-102833735D01*
X93571812Y-102834264D01*
X94132149Y-102602738D01*
X94561231Y-102174404D01*
X94793735Y-101614472D01*
X94793737Y-101611812D01*
X98245736Y-101611812D01*
X98477262Y-102172149D01*
X98905596Y-102601231D01*
X99465528Y-102833735D01*
X99677340Y-102833920D01*
X116769208Y-119925787D01*
X116769210Y-119925790D01*
X117056325Y-120117633D01*
X117112516Y-120128810D01*
X117395000Y-120185001D01*
X117395005Y-120185000D01*
X123056602Y-120185000D01*
X123073106Y-120224943D01*
X123532637Y-120685278D01*
X123575000Y-120702869D01*
X123575000Y-128136602D01*
X123535057Y-128153106D01*
X123189801Y-128497759D01*
X122847363Y-128154722D01*
X122246648Y-127905284D01*
X121596205Y-127904716D01*
X120995057Y-128153106D01*
X120649801Y-128497759D01*
X120307363Y-128154722D01*
X119706648Y-127905284D01*
X119056205Y-127904716D01*
X118455057Y-128153106D01*
X118109801Y-128497759D01*
X117767363Y-128154722D01*
X117166648Y-127905284D01*
X116516205Y-127904716D01*
X115915057Y-128153106D01*
X115569801Y-128497759D01*
X115227363Y-128154722D01*
X114626648Y-127905284D01*
X113976205Y-127904716D01*
X113375057Y-128153106D01*
X113029801Y-128497759D01*
X112687363Y-128154722D01*
X112086648Y-127905284D01*
X111436205Y-127904716D01*
X110835057Y-128153106D01*
X110374722Y-128612637D01*
X110125284Y-129213352D01*
X110124716Y-129863795D01*
X110373106Y-130464943D01*
X110832637Y-130925278D01*
X111433352Y-131174716D01*
X112083795Y-131175284D01*
X112126188Y-131157768D01*
X117484208Y-136515787D01*
X117484210Y-136515790D01*
X117736969Y-136684677D01*
X117771325Y-136707633D01*
X118110000Y-136775001D01*
X118110005Y-136775000D01*
X161048402Y-136775000D01*
X161088281Y-136871515D01*
X161575918Y-137360004D01*
X161736139Y-137426534D01*
X162560000Y-138250395D01*
X163383305Y-137427090D01*
X163541515Y-137361719D01*
X164030004Y-136874082D01*
X164294699Y-136236627D01*
X164295300Y-135547700D01*
X167701500Y-132141500D01*
X167915021Y-131821943D01*
X167990000Y-131445000D01*
X167990000Y-113745000D01*
X167915021Y-113368057D01*
X167701500Y-113048500D01*
X164194790Y-109541790D01*
X164195284Y-108976205D01*
X163946894Y-108375057D01*
X163487363Y-107914722D01*
X162886648Y-107665284D01*
X162236205Y-107664716D01*
X161635057Y-107913106D01*
X161232460Y-108315000D01*
X156266942Y-108315000D01*
X156152143Y-108200000D01*
X158114995Y-108200000D01*
X158115000Y-108200001D01*
X158397484Y-108143810D01*
X158453675Y-108132633D01*
X158740790Y-107940790D01*
X163895787Y-102785792D01*
X163895790Y-102785790D01*
X163974606Y-102667833D01*
X164132149Y-102602738D01*
X164561231Y-102174404D01*
X164793735Y-101614472D01*
X164794264Y-101008188D01*
X164562738Y-100447851D01*
X164134404Y-100018769D01*
X163574472Y-99786265D01*
X162968188Y-99785736D01*
X162407851Y-100017262D01*
X161978769Y-100445596D01*
X161746265Y-101005528D01*
X161745736Y-101611812D01*
X161977262Y-102172149D01*
X161991754Y-102186667D01*
X157748420Y-106430000D01*
X147551580Y-106430000D01*
X151195787Y-102785792D01*
X151195790Y-102785790D01*
X151274606Y-102667833D01*
X151432149Y-102602738D01*
X151861231Y-102174404D01*
X152093735Y-101614472D01*
X152093737Y-101611812D01*
X155245736Y-101611812D01*
X155477262Y-102172149D01*
X155905596Y-102601231D01*
X156465528Y-102833735D01*
X157071812Y-102834264D01*
X157632149Y-102602738D01*
X158061231Y-102174404D01*
X158293735Y-101614472D01*
X158294264Y-101008188D01*
X158062738Y-100447851D01*
X157634404Y-100018769D01*
X157074472Y-99786265D01*
X156468188Y-99785736D01*
X155907851Y-100017262D01*
X155478769Y-100445596D01*
X155246265Y-101005528D01*
X155245736Y-101611812D01*
X152093737Y-101611812D01*
X152094264Y-101008188D01*
X151862738Y-100447851D01*
X151434404Y-100018769D01*
X150874472Y-99786265D01*
X150268188Y-99785736D01*
X149707851Y-100017262D01*
X149278769Y-100445596D01*
X149046265Y-101005528D01*
X149045736Y-101611812D01*
X149277262Y-102172149D01*
X149291754Y-102186667D01*
X146318420Y-105160000D01*
X136121580Y-105160000D01*
X138495787Y-102785792D01*
X138495790Y-102785790D01*
X138574606Y-102667833D01*
X138732149Y-102602738D01*
X139161231Y-102174404D01*
X139393735Y-101614472D01*
X139393737Y-101611812D01*
X142545736Y-101611812D01*
X142777262Y-102172149D01*
X143205596Y-102601231D01*
X143765528Y-102833735D01*
X144371812Y-102834264D01*
X144932149Y-102602738D01*
X145361231Y-102174404D01*
X145593735Y-101614472D01*
X145594264Y-101008188D01*
X145362738Y-100447851D01*
X144934404Y-100018769D01*
X144374472Y-99786265D01*
X143768188Y-99785736D01*
X143207851Y-100017262D01*
X142778769Y-100445596D01*
X142546265Y-101005528D01*
X142545736Y-101611812D01*
X139393737Y-101611812D01*
X139394264Y-101008188D01*
X139162738Y-100447851D01*
X138734404Y-100018769D01*
X138174472Y-99786265D01*
X137568188Y-99785736D01*
X137007851Y-100017262D01*
X136578769Y-100445596D01*
X136346265Y-101005528D01*
X136345736Y-101611812D01*
X136577262Y-102172149D01*
X136591754Y-102186667D01*
X134888420Y-103890000D01*
X124056580Y-103890000D01*
X125112629Y-102833951D01*
X125471812Y-102834264D01*
X126032149Y-102602738D01*
X126461231Y-102174404D01*
X126693735Y-101614472D01*
X126693737Y-101611812D01*
X129845736Y-101611812D01*
X130077262Y-102172149D01*
X130505596Y-102601231D01*
X131065528Y-102833735D01*
X131671812Y-102834264D01*
X132232149Y-102602738D01*
X132661231Y-102174404D01*
X132893735Y-101614472D01*
X132894264Y-101008188D01*
X132662738Y-100447851D01*
X132234404Y-100018769D01*
X131674472Y-99786265D01*
X131068188Y-99785736D01*
X130507851Y-100017262D01*
X130078769Y-100445596D01*
X129846265Y-101005528D01*
X129845736Y-101611812D01*
X126693737Y-101611812D01*
X126694264Y-101008188D01*
X126462738Y-100447851D01*
X126034404Y-100018769D01*
X125474472Y-99786265D01*
X124868188Y-99785736D01*
X124307851Y-100017262D01*
X123878769Y-100445596D01*
X123646265Y-101005528D01*
X123645736Y-101611812D01*
X123700082Y-101743339D01*
X122823420Y-102620000D01*
X119490372Y-102620000D01*
X119532149Y-102602738D01*
X119961231Y-102174404D01*
X120193735Y-101614472D01*
X120194264Y-101008188D01*
X119962738Y-100447851D01*
X119534404Y-100018769D01*
X118974472Y-99786265D01*
X118368188Y-99785736D01*
X117807851Y-100017262D01*
X117378769Y-100445596D01*
X117146265Y-101005528D01*
X117145736Y-101611812D01*
X117377262Y-102172149D01*
X117805596Y-102601231D01*
X118255590Y-102788085D01*
X118119210Y-102879210D01*
X117927367Y-103166325D01*
X117860000Y-103505000D01*
X117860000Y-114935000D01*
X117927367Y-115273675D01*
X117958320Y-115320000D01*
X117841579Y-115320000D01*
X113355000Y-110833420D01*
X113355000Y-102579927D01*
X113761231Y-102174404D01*
X113993735Y-101614472D01*
X113994264Y-101008188D01*
X113762738Y-100447851D01*
X113334404Y-100018769D01*
X112774472Y-99786265D01*
X112168188Y-99785736D01*
X111607851Y-100017262D01*
X111178769Y-100445596D01*
X110946265Y-101005528D01*
X110945736Y-101611812D01*
X111177262Y-102172149D01*
X111585000Y-102580599D01*
X111585000Y-111199995D01*
X111584999Y-111200000D01*
X111637448Y-111463674D01*
X111652367Y-111538675D01*
X111794097Y-111750790D01*
X111844210Y-111825790D01*
X116849208Y-116830787D01*
X116849210Y-116830790D01*
X117136325Y-117022633D01*
X117192516Y-117033810D01*
X117475000Y-117090001D01*
X117475005Y-117090000D01*
X128618420Y-117090000D01*
X130461858Y-118933437D01*
X130445284Y-118973352D01*
X130444716Y-119623795D01*
X130693106Y-120224943D01*
X131152637Y-120685278D01*
X131195000Y-120702869D01*
X131195000Y-124093421D01*
X127366562Y-127921858D01*
X127326648Y-127905284D01*
X126676205Y-127904716D01*
X126075057Y-128153106D01*
X125729801Y-128497759D01*
X125387363Y-128154722D01*
X125345000Y-128137131D01*
X125345000Y-120703398D01*
X125384943Y-120686894D01*
X125845278Y-120227363D01*
X126094716Y-119626648D01*
X126095284Y-118976205D01*
X125846894Y-118375057D01*
X125387363Y-117914722D01*
X124786648Y-117665284D01*
X124136205Y-117664716D01*
X123535057Y-117913106D01*
X123074722Y-118372637D01*
X123057131Y-118415000D01*
X117761579Y-118415000D01*
X101196124Y-101849544D01*
X101293735Y-101614472D01*
X101293737Y-101611812D01*
X104445736Y-101611812D01*
X104677262Y-102172149D01*
X105105596Y-102601231D01*
X105665528Y-102833735D01*
X106271812Y-102834264D01*
X106832149Y-102602738D01*
X107261231Y-102174404D01*
X107493735Y-101614472D01*
X107494264Y-101008188D01*
X107262738Y-100447851D01*
X106834404Y-100018769D01*
X106274472Y-99786265D01*
X105668188Y-99785736D01*
X105107851Y-100017262D01*
X104678769Y-100445596D01*
X104446265Y-101005528D01*
X104445736Y-101611812D01*
X101293737Y-101611812D01*
X101294264Y-101008188D01*
X101062738Y-100447851D01*
X100634404Y-100018769D01*
X100074472Y-99786265D01*
X99468188Y-99785736D01*
X98907851Y-100017262D01*
X98478769Y-100445596D01*
X98246265Y-101005528D01*
X98245736Y-101611812D01*
X94793737Y-101611812D01*
X94794264Y-101008188D01*
X94562738Y-100447851D01*
X94134404Y-100018769D01*
X93574472Y-99786265D01*
X92968188Y-99785736D01*
X92407851Y-100017262D01*
X91978769Y-100445596D01*
X91746265Y-101005528D01*
X91745736Y-101611812D01*
X84530000Y-101611812D01*
X84530000Y-97111812D01*
X91745736Y-97111812D01*
X91977262Y-97672149D01*
X92405596Y-98101231D01*
X92965528Y-98333735D01*
X93571812Y-98334264D01*
X94132149Y-98102738D01*
X94353076Y-97882196D01*
X98877409Y-97882196D01*
X98962467Y-98137539D01*
X99531965Y-98345516D01*
X100137700Y-98319723D01*
X100577533Y-98137539D01*
X100662591Y-97882196D01*
X99770000Y-96989605D01*
X98877409Y-97882196D01*
X94353076Y-97882196D01*
X94561231Y-97674404D01*
X94793735Y-97114472D01*
X94794208Y-96571965D01*
X98234484Y-96571965D01*
X98260277Y-97177700D01*
X98442461Y-97617533D01*
X98697804Y-97702591D01*
X99590395Y-96810000D01*
X99949605Y-96810000D01*
X100842196Y-97702591D01*
X101097539Y-97617533D01*
X101282225Y-97111812D01*
X104445736Y-97111812D01*
X104677262Y-97672149D01*
X105105596Y-98101231D01*
X105665528Y-98333735D01*
X106271812Y-98334264D01*
X106832149Y-98102738D01*
X107053076Y-97882196D01*
X111577409Y-97882196D01*
X111662467Y-98137539D01*
X112231965Y-98345516D01*
X112837700Y-98319723D01*
X113277533Y-98137539D01*
X113362591Y-97882196D01*
X112470000Y-96989605D01*
X111577409Y-97882196D01*
X107053076Y-97882196D01*
X107261231Y-97674404D01*
X107493735Y-97114472D01*
X107494208Y-96571965D01*
X110934484Y-96571965D01*
X110960277Y-97177700D01*
X111142461Y-97617533D01*
X111397804Y-97702591D01*
X112290395Y-96810000D01*
X112649605Y-96810000D01*
X113542196Y-97702591D01*
X113797539Y-97617533D01*
X113982225Y-97111812D01*
X117145736Y-97111812D01*
X117377262Y-97672149D01*
X117805596Y-98101231D01*
X118365528Y-98333735D01*
X118971812Y-98334264D01*
X119532149Y-98102738D01*
X119753076Y-97882196D01*
X124277409Y-97882196D01*
X124362467Y-98137539D01*
X124931965Y-98345516D01*
X125537700Y-98319723D01*
X125977533Y-98137539D01*
X126062591Y-97882196D01*
X125170000Y-96989605D01*
X124277409Y-97882196D01*
X119753076Y-97882196D01*
X119961231Y-97674404D01*
X120193735Y-97114472D01*
X120194208Y-96571965D01*
X123634484Y-96571965D01*
X123660277Y-97177700D01*
X123842461Y-97617533D01*
X124097804Y-97702591D01*
X124990395Y-96810000D01*
X125349605Y-96810000D01*
X126242196Y-97702591D01*
X126497539Y-97617533D01*
X126682225Y-97111812D01*
X129845736Y-97111812D01*
X130077262Y-97672149D01*
X130505596Y-98101231D01*
X131065528Y-98333735D01*
X131671812Y-98334264D01*
X132232149Y-98102738D01*
X132453076Y-97882196D01*
X136977409Y-97882196D01*
X137062467Y-98137539D01*
X137631965Y-98345516D01*
X138237700Y-98319723D01*
X138677533Y-98137539D01*
X138762591Y-97882196D01*
X137870000Y-96989605D01*
X136977409Y-97882196D01*
X132453076Y-97882196D01*
X132661231Y-97674404D01*
X132893735Y-97114472D01*
X132894208Y-96571965D01*
X136334484Y-96571965D01*
X136360277Y-97177700D01*
X136542461Y-97617533D01*
X136797804Y-97702591D01*
X137690395Y-96810000D01*
X138049605Y-96810000D01*
X138942196Y-97702591D01*
X139197539Y-97617533D01*
X139382225Y-97111812D01*
X142545736Y-97111812D01*
X142777262Y-97672149D01*
X143205596Y-98101231D01*
X143765528Y-98333735D01*
X144371812Y-98334264D01*
X144932149Y-98102738D01*
X145153076Y-97882196D01*
X149677409Y-97882196D01*
X149762467Y-98137539D01*
X150331965Y-98345516D01*
X150937700Y-98319723D01*
X151377533Y-98137539D01*
X151462591Y-97882196D01*
X150570000Y-96989605D01*
X149677409Y-97882196D01*
X145153076Y-97882196D01*
X145361231Y-97674404D01*
X145593735Y-97114472D01*
X145594208Y-96571965D01*
X149034484Y-96571965D01*
X149060277Y-97177700D01*
X149242461Y-97617533D01*
X149497804Y-97702591D01*
X150390395Y-96810000D01*
X150749605Y-96810000D01*
X151642196Y-97702591D01*
X151897539Y-97617533D01*
X152082225Y-97111812D01*
X155245736Y-97111812D01*
X155477262Y-97672149D01*
X155905596Y-98101231D01*
X156465528Y-98333735D01*
X157071812Y-98334264D01*
X157632149Y-98102738D01*
X157853076Y-97882196D01*
X162377409Y-97882196D01*
X162462467Y-98137539D01*
X163031965Y-98345516D01*
X163637700Y-98319723D01*
X164077533Y-98137539D01*
X164162591Y-97882196D01*
X163270000Y-96989605D01*
X162377409Y-97882196D01*
X157853076Y-97882196D01*
X158061231Y-97674404D01*
X158293735Y-97114472D01*
X158294208Y-96571965D01*
X161734484Y-96571965D01*
X161760277Y-97177700D01*
X161942461Y-97617533D01*
X162197804Y-97702591D01*
X163090395Y-96810000D01*
X163449605Y-96810000D01*
X164342196Y-97702591D01*
X164597539Y-97617533D01*
X164805516Y-97048035D01*
X164779723Y-96442300D01*
X164597539Y-96002467D01*
X164342196Y-95917409D01*
X163449605Y-96810000D01*
X163090395Y-96810000D01*
X162197804Y-95917409D01*
X161942461Y-96002467D01*
X161734484Y-96571965D01*
X158294208Y-96571965D01*
X158294264Y-96508188D01*
X158062738Y-95947851D01*
X157853058Y-95737804D01*
X162377409Y-95737804D01*
X163270000Y-96630395D01*
X164162591Y-95737804D01*
X164077533Y-95482461D01*
X163508035Y-95274484D01*
X162902300Y-95300277D01*
X162462467Y-95482461D01*
X162377409Y-95737804D01*
X157853058Y-95737804D01*
X157634404Y-95518769D01*
X157074472Y-95286265D01*
X156468188Y-95285736D01*
X155907851Y-95517262D01*
X155478769Y-95945596D01*
X155246265Y-96505528D01*
X155245736Y-97111812D01*
X152082225Y-97111812D01*
X152105516Y-97048035D01*
X152079723Y-96442300D01*
X151897539Y-96002467D01*
X151642196Y-95917409D01*
X150749605Y-96810000D01*
X150390395Y-96810000D01*
X149497804Y-95917409D01*
X149242461Y-96002467D01*
X149034484Y-96571965D01*
X145594208Y-96571965D01*
X145594264Y-96508188D01*
X145362738Y-95947851D01*
X145153058Y-95737804D01*
X149677409Y-95737804D01*
X150570000Y-96630395D01*
X151462591Y-95737804D01*
X151377533Y-95482461D01*
X150808035Y-95274484D01*
X150202300Y-95300277D01*
X149762467Y-95482461D01*
X149677409Y-95737804D01*
X145153058Y-95737804D01*
X144934404Y-95518769D01*
X144374472Y-95286265D01*
X143768188Y-95285736D01*
X143207851Y-95517262D01*
X142778769Y-95945596D01*
X142546265Y-96505528D01*
X142545736Y-97111812D01*
X139382225Y-97111812D01*
X139405516Y-97048035D01*
X139379723Y-96442300D01*
X139197539Y-96002467D01*
X138942196Y-95917409D01*
X138049605Y-96810000D01*
X137690395Y-96810000D01*
X136797804Y-95917409D01*
X136542461Y-96002467D01*
X136334484Y-96571965D01*
X132894208Y-96571965D01*
X132894264Y-96508188D01*
X132662738Y-95947851D01*
X132453058Y-95737804D01*
X136977409Y-95737804D01*
X137870000Y-96630395D01*
X138762591Y-95737804D01*
X138677533Y-95482461D01*
X138108035Y-95274484D01*
X137502300Y-95300277D01*
X137062467Y-95482461D01*
X136977409Y-95737804D01*
X132453058Y-95737804D01*
X132234404Y-95518769D01*
X131674472Y-95286265D01*
X131068188Y-95285736D01*
X130507851Y-95517262D01*
X130078769Y-95945596D01*
X129846265Y-96505528D01*
X129845736Y-97111812D01*
X126682225Y-97111812D01*
X126705516Y-97048035D01*
X126679723Y-96442300D01*
X126497539Y-96002467D01*
X126242196Y-95917409D01*
X125349605Y-96810000D01*
X124990395Y-96810000D01*
X124097804Y-95917409D01*
X123842461Y-96002467D01*
X123634484Y-96571965D01*
X120194208Y-96571965D01*
X120194264Y-96508188D01*
X119962738Y-95947851D01*
X119753058Y-95737804D01*
X124277409Y-95737804D01*
X125170000Y-96630395D01*
X126062591Y-95737804D01*
X125977533Y-95482461D01*
X125408035Y-95274484D01*
X124802300Y-95300277D01*
X124362467Y-95482461D01*
X124277409Y-95737804D01*
X119753058Y-95737804D01*
X119534404Y-95518769D01*
X118974472Y-95286265D01*
X118368188Y-95285736D01*
X117807851Y-95517262D01*
X117378769Y-95945596D01*
X117146265Y-96505528D01*
X117145736Y-97111812D01*
X113982225Y-97111812D01*
X114005516Y-97048035D01*
X113979723Y-96442300D01*
X113797539Y-96002467D01*
X113542196Y-95917409D01*
X112649605Y-96810000D01*
X112290395Y-96810000D01*
X111397804Y-95917409D01*
X111142461Y-96002467D01*
X110934484Y-96571965D01*
X107494208Y-96571965D01*
X107494264Y-96508188D01*
X107262738Y-95947851D01*
X107053058Y-95737804D01*
X111577409Y-95737804D01*
X112470000Y-96630395D01*
X113362591Y-95737804D01*
X113277533Y-95482461D01*
X112708035Y-95274484D01*
X112102300Y-95300277D01*
X111662467Y-95482461D01*
X111577409Y-95737804D01*
X107053058Y-95737804D01*
X106834404Y-95518769D01*
X106274472Y-95286265D01*
X105668188Y-95285736D01*
X105107851Y-95517262D01*
X104678769Y-95945596D01*
X104446265Y-96505528D01*
X104445736Y-97111812D01*
X101282225Y-97111812D01*
X101305516Y-97048035D01*
X101279723Y-96442300D01*
X101097539Y-96002467D01*
X100842196Y-95917409D01*
X99949605Y-96810000D01*
X99590395Y-96810000D01*
X98697804Y-95917409D01*
X98442461Y-96002467D01*
X98234484Y-96571965D01*
X94794208Y-96571965D01*
X94794264Y-96508188D01*
X94562738Y-95947851D01*
X94353058Y-95737804D01*
X98877409Y-95737804D01*
X99770000Y-96630395D01*
X100662591Y-95737804D01*
X100577533Y-95482461D01*
X100008035Y-95274484D01*
X99402300Y-95300277D01*
X98962467Y-95482461D01*
X98877409Y-95737804D01*
X94353058Y-95737804D01*
X94134404Y-95518769D01*
X93574472Y-95286265D01*
X92968188Y-95285736D01*
X92407851Y-95517262D01*
X91978769Y-95945596D01*
X91746265Y-96505528D01*
X91745736Y-97111812D01*
X84530000Y-97111812D01*
X84530000Y-92059270D01*
X85772458Y-92059270D01*
X86247512Y-93208989D01*
X87126384Y-94089396D01*
X88275272Y-94566456D01*
X89519270Y-94567542D01*
X90668989Y-94092488D01*
X91549396Y-93213616D01*
X92026456Y-92064728D01*
X92026460Y-92059270D01*
X167052458Y-92059270D01*
X167527512Y-93208989D01*
X168406384Y-94089396D01*
X169555272Y-94566456D01*
X170799270Y-94567542D01*
X171948989Y-94092488D01*
X172829396Y-93213616D01*
X173306456Y-92064728D01*
X173307542Y-90820730D01*
X172832488Y-89671011D01*
X171953616Y-88790604D01*
X170804728Y-88313544D01*
X169560730Y-88312458D01*
X168411011Y-88787512D01*
X167530604Y-89666384D01*
X167053544Y-90815272D01*
X167052458Y-92059270D01*
X92026460Y-92059270D01*
X92027542Y-90820730D01*
X91552488Y-89671011D01*
X90673616Y-88790604D01*
X89524728Y-88313544D01*
X88280730Y-88312458D01*
X87131011Y-88787512D01*
X86250604Y-89666384D01*
X85773544Y-90815272D01*
X85772458Y-92059270D01*
X84530000Y-92059270D01*
X84530000Y-87070000D01*
X174550000Y-87070000D01*
X174550000Y-154230000D01*
M02*
