M48
;DRILL file {KiCad 4.0.1-stable} date 2018/10/01 17:57:43
;FORMAT={-:-/ absolute / metric / decimal}
FMAT,2
METRIC,TZ
T1C1.000
T2C3.000
%
G90
G05
M71
T1
X93.27Y-96.81
X93.27Y-101.31
X99.77Y-96.81
X99.77Y-101.31
X105.97Y-96.81
X105.97Y-101.31
X111.76Y-129.54
X111.76Y-144.78
X112.47Y-96.81
X112.47Y-101.31
X114.3Y-129.54
X114.3Y-144.78
X116.84Y-129.54
X116.84Y-144.78
X118.67Y-96.81
X118.67Y-101.31
X119.38Y-129.54
X119.38Y-144.78
X121.92Y-129.54
X121.92Y-144.78
X124.46Y-109.3
X124.46Y-119.3
X124.46Y-129.54
X124.46Y-144.78
X125.17Y-96.81
X125.17Y-101.31
X127.Y-129.54
X127.Y-144.78
X129.54Y-129.54
X129.54Y-144.78
X131.37Y-96.81
X131.37Y-101.31
X132.08Y-109.3
X132.08Y-119.3
X132.08Y-129.54
X132.08Y-144.78
X134.62Y-129.54
X134.62Y-144.78
X137.16Y-129.54
X137.16Y-144.78
X137.87Y-96.81
X137.87Y-101.31
X139.7Y-109.3
X139.7Y-119.3
X139.7Y-129.54
X139.7Y-144.78
X142.24Y-129.54
X142.24Y-144.78
X144.07Y-96.81
X144.07Y-101.31
X144.78Y-129.54
X144.78Y-144.78
X147.32Y-109.3
X147.32Y-119.3
X150.57Y-96.81
X150.57Y-101.31
X154.94Y-109.3
X154.94Y-119.3
X156.77Y-96.81
X156.77Y-101.31
X162.56Y-109.3
X162.56Y-119.3
X162.56Y-135.89
X162.56Y-138.43
X163.27Y-96.81
X163.27Y-101.31
T2
X88.9Y-91.44
X88.9Y-149.86
X170.18Y-91.44
X170.18Y-149.86
T0
M30
